<svg preserveAspectRatio="none" overflow="visible" style="display: block;" width="28" height="28" viewBox="0 0 28 28" fill="none" xmlns="http://www.w3.org/2000/svg">
<g id="carbon:keyboard">
<path id="Vector" d="M24.5 22.75H3.5C3.03587 22.75 2.59075 22.5656 2.26256 22.2374C1.93437 21.9092 1.75 21.4641 1.75 21V8.75C1.75 8.28587 1.93437 7.84075 2.26256 7.51256C2.59075 7.18437 3.03587 7 3.5 7H24.5C24.9641 7 25.4092 7.18437 25.7374 7.51256C26.0656 7.84075 26.25 8.28587 26.25 8.75V21C26.25 21.4641 26.0656 21.9092 25.7374 22.2374C25.4092 22.5656 24.9641 22.75 24.5 22.75ZM3.5 8.75V21H24.5V8.75H3.5Z" fill="#54E8F6"/>
<path id="Vector_2" d="M8.75 17.5H18.375V19.25H8.75V17.5ZM5.25 10.5H7V12.25H5.25V10.5ZM8.75 10.5H10.5V12.25H8.75V10.5ZM12.25 10.5H14V12.25H12.25V10.5ZM15.75 10.5H17.5V12.25H15.75V10.5ZM5.25 17.5H7V19.25H5.25V17.5ZM5.25 14H7V15.75H5.25V14ZM8.75 14H10.5V15.75H8.75V14ZM12.25 14H14V15.75H12.25V14ZM19.25 10.5H22.75V12.25H19.25V10.5ZM19.25 14H22.75V15.75H19.25V14ZM15.75 14H17.5V15.75H15.75V14ZM20.125 17.5H22.75V19.25H20.125V17.5Z" fill="#54E8F6"/>
</g>
</svg>
