<svg preserveAspectRatio="none" overflow="visible" style="display: block;" width="14" height="14" viewBox="0 0 14 14" fill="none" xmlns="http://www.w3.org/2000/svg">
<g id="check-circle" clip-path="url(#clip0_0_56)">
<path id="Vector" d="M12.7168 5.83345C12.9832 7.14088 12.7934 8.50012 12.1789 9.6845C11.5644 10.8689 10.5625 11.8068 9.3402 12.3419C8.1179 12.877 6.7491 12.9768 5.46208 12.6248C4.17505 12.2728 3.0476 11.4903 2.26773 10.4076C1.48786 9.32496 1.10272 8.00768 1.17654 6.67543C1.25035 5.34318 1.77866 4.07651 2.67336 3.08664C3.56806 2.09677 4.77507 1.44354 6.09311 1.23589C7.41114 1.02823 8.76052 1.27871 9.91623 1.94554M5.24979 6.41651L6.99979 8.16651L12.8331 2.33318" stroke="#69F5D0" stroke-width="1.7" stroke-linecap="round"/>
</g>
<defs>
<clipPath id="clip0_0_56">
<rect width="14" height="14" fill="white"/>
</clipPath>
</defs>
</svg>
