<?xml version="1.0" encoding="UTF-8"?>
<svg xmlns="http://www.w3.org/2000/svg" width="60" height="60" viewBox="0 0 1024 1024" role="img" aria-label="Teaching tab icon">
  <path fill="#000000" fill-rule="evenodd" d="M 683 667 L 679 656 L 666 641 L 657 636 L 634 630 L 616 638 L 594 640 L 583 638 L 567 631 L 559 631 L 546 634 L 536 639 L 525 649 L 520 657 L 516 669 L 514 698 L 686 698 Z M 331 680 L 331 698 L 502 698 L 501 674 L 498 662 L 493 652 L 485 643 L 476 637 L 453 630 L 436 637 L 422 640 L 400 638 L 382 630 L 361 635 L 350 641 L 340 651 L 334 664 Z M 594 536 L 574 543 L 560 556 L 552 575 L 552 591 L 559 609 L 571 622 L 585 629 L 601 631 L 616 628 L 624 624 L 638 612 L 645 599 L 647 591 L 647 576 L 640 558 L 629 546 L 610 537 Z M 411 536 L 393 542 L 379 554 L 370 573 L 369 587 L 372 600 L 383 617 L 400 628 L 419 631 L 438 626 L 446 621 L 455 612 L 462 598 L 464 578 L 459 562 L 447 547 L 436 540 L 427 537 Z M 401 507 L 402 526 L 767 526 L 776 523 L 776 507 Z M 498 405 L 492 399 L 482 397 L 423 416 L 369 409 L 304 409 L 282 416 L 266 430 L 256 449 L 249 511 L 249 528 L 252 535 L 256 539 L 267 543 L 275 542 L 284 535 L 291 469 L 297 546 L 366 546 L 386 529 L 386 456 L 398 455 L 418 457 L 432 455 L 491 430 L 497 425 L 500 419 L 500 410 Z M 332 313 L 315 320 L 303 333 L 297 349 L 298 368 L 304 381 L 316 393 L 326 398 L 335 400 L 350 399 L 365 392 L 378 378 L 383 364 L 382 345 L 374 329 L 363 319 L 348 313 Z M 402 290 L 402 401 L 424 404 L 482 385 L 493 386 L 507 394 L 510 394 L 596 344 L 600 345 L 603 350 L 593 359 L 514 406 L 515 412 L 513 422 L 508 431 L 497 440 L 433 467 L 401 468 L 401 497 L 646 497 L 645 483 L 646 479 L 651 476 L 706 476 L 709 477 L 712 482 L 712 497 L 760 497 L 760 291 L 756 286 L 408 285 Z M 663 345 L 668 339 L 724 339 L 729 342 L 730 347 L 725 352 L 668 352 L 664 349 Z M 640 320 L 645 315 L 725 315 L 730 319 L 730 323 L 725 328 L 645 328 L 641 325 Z"/>
</svg>
